<svg xmlns="http://www.w3.org/2000/svg" viewBox="0 0 420 250" role="img" aria-label="Vinda 维达">
  <g fill="#0864bb">
    <path d="M55 72c4-32 31-55 62-52-5 12-18 29-39 42 26-14 55-17 79-6-11 13-31 26-58 33 30-5 56 1 75 17-18 12-45 17-76 12-31-5-54-20-65-37 6-2 14-5 22-9Z"/>
    <path d="M25 106c9-16 26-25 45-23 5 24 21 42 48 53-36 6-71-6-93-30Zm38 45c26-8 49-4 69 13-11 21-34 36-65 39-17-12-26-29-26-49 7 0 14-1 22-3Z"/>
    <text x="44" y="190" font-family="Georgia, Times New Roman, serif" font-size="92" font-style="italic" font-weight="700">Vinda</text>
    <text x="166" y="232" font-family="PingFang SC, Microsoft YaHei, sans-serif" font-size="38" font-weight="700">维达</text>
  </g>
</svg>
